<svg xmlns="http://www.w3.org/2000/svg" version="1.2" baseProfile="tiny" width="1404px" height="1872px" viewBox="0 0 1404 1872">

  <desc>Cypher System Character Sheet</desc>

  <!-- temp layout -->

  <rect x="100" y="440" width="1204" height="100" stroke="red" fill-opacity="0" />

  <!-- y0 = 560 y1 = (1872 - 20) = 1852 - 560 = 1292 / 2 = 646 -10 = 636
       560 + 636 + 20 = 1216
  -->
  <rect x="100" y="560" width="592" height="636" stroke="red" fill-opacity="0" />
  <rect x="712" y="560" width="592" height="636" stroke="red" fill-opacity="0" />
  <rect x="100" y="1216" width="592" height="636" stroke="red" fill-opacity="0" />
  <rect x="712" y="1216" width="592" height="636" stroke="red" fill-opacity="0" />

  <!-- Character Sentence -->
  <rect x="100" y="0" width="1204" height="200" stroke="black" stroke-width="4" fill="#ebd6ff" rx="10" ry="10" />
  <line x1="100" y1="100" x2="1304" y2="100" stroke="#823dc2" stroke-width="4" />

  <text x="110" y="90" font-family="arial" font-size="24" fill="#823dc2">Name (pronouns)</text>
  <text x="600" y="60" font-family="arial" font-size="50" fill="#7021ba">is a</text>
  <text x="700" y="90" font-family="arial" font-size="24" fill="#823dc2">Descriptor</text>
  <text x="1000" y="90" font-family="arial" font-size="24" fill="#823dc2">Race</text>

  <text x="110" y="190" font-family="arial" font-size="24" fill="#823dc2">Type / Flavor</text>
  <text x="600" y="160" font-family="arial" font-size="50" fill="#7021ba">who</text>
  <text x="700" y="190" font-family="arial" font-size="24" fill="#823dc2">Focus</text>

  <!-- Stats -->
  <line x1="198" y1="353" x2="198" y2="420" stroke="#823dc2" stroke-width="4" />
  <line x1="297" y1="220" x2="297" y2="420" stroke="#823dc2" stroke-width="4" />
  <line x1="396" y1="353" x2="396" y2="420" stroke="#823dc2" stroke-width="4" />
  <line x1="495" y1="220" x2="495" y2="420" stroke="#823dc2" stroke-width="4" />
  <line x1="593" y1="353" x2="593" y2="420" stroke="#823dc2" stroke-width="4" />
  <line x1="100" y1="353" x2="692" y2="353" stroke="#823dc2" stroke-width="4" />
  <rect x="100" y="220" width="592" height="200" stroke="black" stroke-width="4" fill-opacity="0" rx="10" ry="10" />
  <text x="155" y="252" font-family="arial" font-size="32" fill="#7021ba">Might</text>
  <text x="346" y="252" font-family="arial" font-size="32" fill="#7021ba">Speed</text>
  <text x="535" y="252" font-family="arial" font-size="32" fill="#7021ba">Intellect</text>
  <text x="127" y="410" font-family="arial" font-size="20" fill="#7021ba">Pool</text>
  <text x="225" y="410" font-family="arial" font-size="20" fill="#7021ba">Edge</text>
  <text x="324" y="410" font-family="arial" font-size="20" fill="#7021ba">Pool</text>
  <text x="422" y="410" font-family="arial" font-size="20" fill="#7021ba">Edge</text>
  <text x="521" y="410" font-family="arial" font-size="20" fill="#7021ba">Pool</text>
  <text x="619" y="410" font-family="arial" font-size="20" fill="#7021ba">Edge</text>

  <!-- Recovery Rolls / Damage Track Divider -->
  <line x1="1008" y1="220" x2="1008" y2="420" stroke="black" stroke-width="4" />

  <!-- Recover Rolls -->
  <text x="720" y="252" font-family="arial" font-size="32" fill="#7021ba">Recovery Rolls</text>
  <text x="730" y="290" font-family="arial" font-size="20" fill="#7021ba">1d6+</text>
  <line x1="810" y1="303" x2="850" y2="303" stroke="#823dc2" stroke-width="4" />
  <text x="730" y="346" font-family="arial" font-size="20" fill="#7021ba">1 Action</text>
  <rect x="820" y="329" width="20" height="20" stroke="black" stroke-width="2" fill-opacity="0" />
  <text x="730" y="402" font-family="arial" font-size="20" fill="#7021ba">10 Min</text>
  <rect x="820" y="385" width="20" height="20" stroke="black" stroke-width="2" fill-opacity="0" />
  <text x="878" y="290" font-family="arial" font-size="20" fill="#7021ba">1 Hr</text>
  <rect x="968" y="273" width="20" height="20" stroke="black" stroke-width="2" fill-opacity="0" />
  <text x="878" y="346" font-family="arial" font-size="20" fill="#7021ba">10 Hrs</text>
  <rect x="968" y="329" width="20" height="20" stroke="black" stroke-width="2" fill-opacity="0" />

  <!-- Damage Track -->
  <text x="1016" y="252" font-family="arial" font-size="32" fill="#7021ba">Damage Track</text>
  <rect x="1026" y="273" width="20" height="20" stroke="black" stroke-width="2" fill-opacity="0" />
  <rect x="1026" y="329" width="20" height="20" stroke="black" stroke-width="2" fill-opacity="0" />

  <!-- Recovery Rolls / Damage Track Borders -->
  <rect x="712" y="220" width="592" height="200" stroke="black" stroke-width="4" fill-opacity="0" rx="10" ry="10" />

  <!-- Tier / Effort / XP -->

  <!-- Advancement -->

  <!-- Might Skills -->

  <!-- Intellect Skills -->

  <!-- Speed Skills -->

  <!-- Assets -->
</svg>
